HIERARCHY
ROOT Hips
{
	OFFSET 0.000000 71.427986 0.000000
	CHANNELS 6 Xposition Yposition Zposition Xrotation Yrotation Zrotation
	JOINT Pelvis
	{
		OFFSET 0.000000 0.000000 0.000000
		CHANNELS 3 Xrotation Yrotation Zrotation
		JOINT LeftUpLeg
		{
			OFFSET 6.797100 -2.508499 -1.318700
			CHANNELS 3 Xrotation Yrotation Zrotation
			JOINT LeftLeg
			{
				OFFSET 0.069008 -29.241863 0.690200
				CHANNELS 3 Xrotation Yrotation Zrotation
				JOINT LeftFoot
				{
					OFFSET -0.069008 -29.568123 -0.266800
					CHANNELS 3 Xrotation Yrotation Zrotation
					JOINT LeftToeBase
					{
						OFFSET 3.145500 -8.631000 16.059900
						CHANNELS 3 Xrotation Yrotation Zrotation
						End Site
						{
							OFFSET 0.000000 18.501587 0.000000
						}
					}
				}
			}
			JOINT Left_ShortSleeve
			{
				OFFSET 0.265923 -10.480953 1.153800
				CHANNELS 3 Xrotation Yrotation Zrotation
				End Site
				{
					OFFSET 1.725763 19.823879 0.000000
				}
			}
		}
		JOINT RightUpLeg
		{
			OFFSET -6.797100 -2.508499 -1.318700
			CHANNELS 3 Xrotation Yrotation Zrotation
			JOINT RightLeg
			{
				OFFSET -0.082453 -29.241932 0.688000
				CHANNELS 3 Xrotation Yrotation Zrotation
				JOINT RightFoot
				{
					OFFSET 0.082453 -29.568058 -0.264600
					CHANNELS 3 Xrotation Yrotation Zrotation
					JOINT RightToeBase
					{
						OFFSET -3.115300 -8.682800 16.113400
						CHANNELS 3 Xrotation Yrotation Zrotation
						End Site
						{
							OFFSET 0.000000 18.567114 0.000000
						}
					}
				}
			}
			JOINT Right_ShortSleeve
			{
				OFFSET -0.265923 -10.480953 1.153800
				CHANNELS 3 Xrotation Yrotation Zrotation
				End Site
				{
					OFFSET -1.725766 19.823910 0.000000
				}
			}
		}
	}
	JOINT Spine
	{
		OFFSET 0.000000 13.368103 0.470500
		CHANNELS 3 Xrotation Yrotation Zrotation
		JOINT Spine1
		{
			OFFSET 0.147000 13.837402 0.538800
			CHANNELS 3 Xrotation Yrotation Zrotation
			JOINT Spine2
			{
				OFFSET 0.168000 16.242897 -1.435500
				CHANNELS 3 Xrotation Yrotation Zrotation
				JOINT Neck
				{
					OFFSET 0.217200 18.631500 -1.679100
					CHANNELS 3 Xrotation Yrotation Zrotation
					JOINT Head
					{
						OFFSET 0.000000 6.599396 1.385900
						CHANNELS 3 Xrotation Yrotation Zrotation
						JOINT Hat
						{
							OFFSET -0.532200 27.220596 -10.096100
							CHANNELS 3 Xrotation Yrotation Zrotation
							End Site
							{
								OFFSET 0.000000 22.029861 0.000000
							}
						}
						JOINT HairD
						{
							OFFSET -10.777400 17.437393 -1.325900
							CHANNELS 3 Xrotation Yrotation Zrotation
							JOINT HairD1
							{
								OFFSET -3.290299 -11.051193 1.062200
								CHANNELS 3 Xrotation Yrotation Zrotation
								End Site
								{
									OFFSET 0.000000 11.579437 0.000000
								}
							}
						}
						JOINT HairB
						{
							OFFSET -10.777400 17.437393 1.467900
							CHANNELS 3 Xrotation Yrotation Zrotation
							JOINT HairB1
							{
								OFFSET -1.561200 -12.956299 3.590200
								CHANNELS 3 Xrotation Yrotation Zrotation
								End Site
								{
									OFFSET 0.000000 13.534866 0.000000
								}
							}
						}
						JOINT HairA
						{
							OFFSET 9.713100 17.437393 1.467900
							CHANNELS 3 Xrotation Yrotation Zrotation
							JOINT HairA1
							{
								OFFSET 1.561200 -12.956299 3.590200
								CHANNELS 3 Xrotation Yrotation Zrotation
								End Site
								{
									OFFSET 0.000000 13.534866 0.000000
								}
							}
						}
						JOINT HairC
						{
							OFFSET 9.713100 17.437393 -1.325900
							CHANNELS 3 Xrotation Yrotation Zrotation
							JOINT HairC1
							{
								OFFSET 3.290300 -11.051193 1.062200
								CHANNELS 3 Xrotation Yrotation Zrotation
								End Site
								{
									OFFSET 0.000000 11.579437 0.000000
								}
							}
						}
					}
				}
				JOINT LeftShoulder
				{
					OFFSET 5.101800 15.108002 -2.763700
					CHANNELS 3 Xrotation Yrotation Zrotation
					JOINT LeftArm
					{
						OFFSET 9.825497 2.506317 -1.597400
						CHANNELS 3 Xrotation Yrotation Zrotation
						JOINT LeftForeArm
						{
							OFFSET 21.966244 0.000000 0.000000
							CHANNELS 3 Xrotation Yrotation Zrotation
							JOINT LeftHand
							{
								OFFSET 33.879036 0.000000 0.000000
								CHANNELS 3 Xrotation Yrotation Zrotation
								JOINT LeftHandThumb1
								{
									OFFSET 6.715286 -2.359680 3.363841
									CHANNELS 3 Xrotation Yrotation Zrotation
									JOINT LeftHandThumb2
									{
										OFFSET 2.507072 -1.447464 1.447461
										CHANNELS 3 Xrotation Yrotation Zrotation
										JOINT LeftHandThumb3
										{
											OFFSET 2.898338 -1.673355 1.673357
											CHANNELS 3 Xrotation Yrotation Zrotation
											End Site
											{
												OFFSET -0.295959 3.727692 -0.131651
											}
										}
									}
								}
								JOINT LeftHandIndex1
								{
									OFFSET 14.190811 -0.254547 3.840278
									CHANNELS 3 Xrotation Yrotation Zrotation
									JOINT LeftHandIndex2
									{
										OFFSET 3.551727 0.000000 -0.000000
										CHANNELS 3 Xrotation Yrotation Zrotation
										JOINT LeftHandIndex3
										{
											OFFSET 2.894196 0.000000 0.000000
											CHANNELS 3 Xrotation Yrotation Zrotation
											End Site
											{
												OFFSET -1.000603 2.690872 0.366626
											}
										}
									}
								}
								JOINT LeftHandMiddle1
								{
									OFFSET 13.776489 0.000000 0.000000
									CHANNELS 3 Xrotation Yrotation Zrotation
									JOINT LeftHandMiddle2
									{
										OFFSET 3.438232 0.000000 0.000000
										CHANNELS 3 Xrotation Yrotation Zrotation
										JOINT LeftHandMiddle3
										{
											OFFSET 3.691551 0.000000 0.000000
											CHANNELS 3 Xrotation Yrotation Zrotation
											End Site
											{
												OFFSET -1.082298 3.499527 0.457670
											}
										}
									}
								}
								JOINT LeftHandRing1
								{
									OFFSET 13.966164 -0.268127 -3.067488
									CHANNELS 3 Xrotation Yrotation Zrotation
									JOINT LeftHandRing2
									{
										OFFSET 3.162567 0.000000 0.000000
										CHANNELS 3 Xrotation Yrotation Zrotation
										JOINT LeftHandRing3
										{
											OFFSET 3.324348 0.000000 0.000000
											CHANNELS 3 Xrotation Yrotation Zrotation
											End Site
											{
												OFFSET -0.861900 3.184998 0.405154
											}
										}
									}
								}
								JOINT LeftHandPinky1
								{
									OFFSET 13.131393 -0.168503 -5.746925
									CHANNELS 3 Xrotation Yrotation Zrotation
									JOINT LeftHandPinky2
									{
										OFFSET 2.849182 0.000000 0.000000
										CHANNELS 3 Xrotation Yrotation Zrotation
										JOINT LeftHandPinky3
										{
											OFFSET 2.805038 0.000000 0.000000
											CHANNELS 3 Xrotation Yrotation Zrotation
											End Site
											{
												OFFSET -0.882500 2.642609 0.325652
											}
										}
									}
								}
							}
							JOINT Left_Sleeve
							{
								OFFSET 6.592125 -0.646545 0.805568
								CHANNELS 3 Xrotation Yrotation Zrotation
								End Site
								{
									OFFSET -0.000179 20.275787 -0.000000
								}
							}
						}
					}
				}
				JOINT RightShoulder
				{
					OFFSET -5.731700 15.108002 -2.763700
					CHANNELS 3 Xrotation Yrotation Zrotation
					JOINT RightArm
					{
						OFFSET -9.825497 2.506317 -1.597400
						CHANNELS 3 Xrotation Yrotation Zrotation
						JOINT RightForeArm
						{
							OFFSET -21.966242 0.000000 0.000000
							CHANNELS 3 Xrotation Yrotation Zrotation
							JOINT RightHand
							{
								OFFSET -33.879032 0.000000 0.000000
								CHANNELS 3 Xrotation Yrotation Zrotation
								JOINT RightHandThumb1
								{
									OFFSET -6.715286 -2.359680 3.363841
									CHANNELS 3 Xrotation Yrotation Zrotation
									JOINT RightHandThumb2
									{
										OFFSET -2.507072 -1.447464 1.447461
										CHANNELS 3 Xrotation Yrotation Zrotation
										JOINT RightHandThumb3
										{
											OFFSET -2.898338 -1.673355 1.673357
											CHANNELS 3 Xrotation Yrotation Zrotation
											End Site
											{
												OFFSET 0.295959 3.727692 -0.131651
											}
										}
									}
								}
								JOINT RightHandIndex1
								{
									OFFSET -14.190811 -0.254547 3.840278
									CHANNELS 3 Xrotation Yrotation Zrotation
									JOINT RightHandIndex2
									{
										OFFSET -3.551727 0.000000 -0.000000
										CHANNELS 3 Xrotation Yrotation Zrotation
										JOINT RightHandIndex3
										{
											OFFSET -2.894196 0.000000 0.000000
											CHANNELS 3 Xrotation Yrotation Zrotation
											End Site
											{
												OFFSET 1.000603 2.690872 0.366626
											}
										}
									}
								}
								JOINT RightHandMiddle1
								{
									OFFSET -13.776489 0.000000 0.000000
									CHANNELS 3 Xrotation Yrotation Zrotation
									JOINT RightHandMiddle2
									{
										OFFSET -3.438232 0.000000 0.000000
										CHANNELS 3 Xrotation Yrotation Zrotation
										JOINT RightHandMiddle3
										{
											OFFSET -3.691551 0.000000 0.000000
											CHANNELS 3 Xrotation Yrotation Zrotation
											End Site
											{
												OFFSET 1.082298 3.499527 0.457670
											}
										}
									}
								}
								JOINT RightHandRing1
								{
									OFFSET -13.966164 -0.268127 -3.067488
									CHANNELS 3 Xrotation Yrotation Zrotation
									JOINT RightHandRing2
									{
										OFFSET -3.162567 0.000000 0.000000
										CHANNELS 3 Xrotation Yrotation Zrotation
										JOINT RightHandRing3
										{
											OFFSET -3.324348 0.000000 0.000000
											CHANNELS 3 Xrotation Yrotation Zrotation
											End Site
											{
												OFFSET 0.861900 3.184998 0.405154
											}
										}
									}
								}
								JOINT RightHandPinky1
								{
									OFFSET -13.131393 -0.168503 -5.746925
									CHANNELS 3 Xrotation Yrotation Zrotation
									JOINT RightHandPinky2
									{
										OFFSET -2.849182 0.000000 0.000000
										CHANNELS 3 Xrotation Yrotation Zrotation
										JOINT RightHandPinky3
										{
											OFFSET -2.805038 0.000000 0.000000
											CHANNELS 3 Xrotation Yrotation Zrotation
											End Site
											{
												OFFSET 0.882500 2.642609 0.325652
											}
										}
									}
								}
							}
							JOINT Right_Sleeve
							{
								OFFSET -6.592125 -0.646545 0.805568
								CHANNELS 3 Xrotation Yrotation Zrotation
								End Site
								{
									OFFSET 0.000179 20.275787 -0.000000
								}
							}
						}
					}
				}
				JOINT Bind_Right_JacketString
				{
					OFFSET -3.534800 11.969597 7.200700
					CHANNELS 3 Xrotation Yrotation Zrotation
					JOINT Bind_Right_JacketString1
					{
						OFFSET -0.319900 -6.102600 2.794100
						CHANNELS 3 Xrotation Yrotation Zrotation
						End Site
						{
							OFFSET 0.000000 6.719452 0.000000
						}
					}
				}
				JOINT Bind_Left_JacketString
				{
					OFFSET 2.904800 11.969597 7.200700
					CHANNELS 3 Xrotation Yrotation Zrotation
					JOINT Bind_Left_JacketString1
					{
						OFFSET 0.364800 -5.904503 3.186800
						CHANNELS 3 Xrotation Yrotation Zrotation
						End Site
						{
							OFFSET 0.000000 6.719513 0.000000
						}
					}
				}
				JOINT HairE
				{
					OFFSET 5.915200 17.612701 -11.592200
					CHANNELS 3 Xrotation Yrotation Zrotation
					JOINT HairE1
					{
						OFFSET 0.289200 -7.171898 -1.284500
						CHANNELS 3 Xrotation Yrotation Zrotation
						End Site
						{
							OFFSET 0.000000 7.291756 0.000000
						}
					}
				}
				JOINT HairF
				{
					OFFSET -0.864800 17.612701 -11.592200
					CHANNELS 3 Xrotation Yrotation Zrotation
					JOINT HairF1
					{
						OFFSET 0.000000 -14.087097 -2.127501
						CHANNELS 3 Xrotation Yrotation Zrotation
						End Site
						{
							OFFSET 0.000000 14.246841 0.000000
						}
					}
				}
				JOINT HairG
				{
					OFFSET -8.087700 17.612701 -11.592200
					CHANNELS 3 Xrotation Yrotation Zrotation
					JOINT HairG1
					{
						OFFSET -0.293600 -6.081398 -0.910100
						CHANNELS 3 Xrotation Yrotation Zrotation
						End Site
						{
							OFFSET 0.000000 6.156120 0.000000
						}
					}
				}
			}
		}
	}
	JOINT Pouch
	{
		OFFSET 0.000000 4.394501 10.847300
		CHANNELS 3 Xrotation Yrotation Zrotation
		End Site
		{
			OFFSET 0.000000 21.880577 0.000000
		}
	}
	JOINT Bag
	{
		OFFSET -13.229000 4.813004 -0.593300
		CHANNELS 3 Xrotation Yrotation Zrotation
		End Site
		{
			OFFSET 0.000000 21.880577 0.000000
		}
	}
	JOINT OccupyGuyFacialAnim_Joint
	{
		OFFSET 1.000000 -70.206398 -1.655000
		CHANNELS 3 Xrotation Yrotation Zrotation
		End Site
		{
			OFFSET 0.000000 21.880577 0.000000
		}
	}
}
MOTION
Frames: 4
Frame Time: 0.016667
0.194691 56.663414 1.441677 0.006901 -7.715288 -16.125155 0.000000 0.000001 -0.000000 -58.730078 11.036256 4.860470 106.234283 10.387008 0.494600 1.806860 -0.265704 17.922503 -0.000000 -0.000000 -0.000000 -0.000007 0.000001 -0.000002 -28.792198 4.013282 -2.164301 66.667714 10.084586 0.619613 -40.496820 -1.553584 9.572942 0.000000 0.000000 0.000000 -0.000001 0.000000 0.000000 5.600706 1.104730 0.021796 4.651099 0.654911 1.633867 4.657234 0.491972 1.673784 0.396506 1.761070 0.948530 -15.762644 26.254650 5.119162 0.000001 -0.000001 -0.000000 0.000001 -0.000001 -0.000000 0.000001 -0.000001 -0.000000 0.000001 -0.000001 0.000000 0.000001 -0.000002 0.000000 0.000001 -0.000001 0.000000 0.000001 -0.000002 0.000000 0.000001 -0.000001 -0.000000 0.000001 -0.000001 -0.000000 0.472291 0.823557 -6.563488 41.287056 -17.715624 -58.148699 0.000009 -58.979831 -0.000002 -18.820692 -33.533483 26.792921 5.358054 -0.141369 9.666160 3.545769 27.155808 3.560569 0.000001 0.000002 0.000000 -1.578839 0.825935 -19.703513 0.405082 2.870988 -21.069211 0.000001 0.000000 -0.000000 0.409507 7.162237 -25.647939 0.416496 2.993233 -22.185358 0.000002 -0.000000 0.000002 2.386874 10.570815 -32.882368 0.471660 2.115282 -18.421983 -0.000002 -0.000001 -0.000003 2.967942 13.388249 -36.938903 0.139965 1.667045 -18.441900 -0.000003 -0.000000 0.000003 0.000004 -0.000000 -0.000001 0.625965 0.265420 11.021706 -6.297842 23.802321 54.826915 0.000350 96.647054 -0.000373 -19.103259 24.520610 -3.410970 0.789346 -8.211539 -4.825394 0.020123 -13.361264 -9.371041 0.000000 -0.000001 0.000001 -1.070482 -2.247353 17.231259 0.405438 -2.871951 21.079328 -0.000001 -0.000001 0.000002 0.439001 -7.256199 26.595152 0.417440 -2.995666 22.211560 -0.000002 -0.000001 -0.000004 2.698234 -11.184214 32.166107 0.472426 -2.116939 18.440358 0.000002 -0.000000 0.000003 4.305390 -16.260317 34.920981 0.139787 -1.666345 18.434725 -0.000001 0.000001 -0.000006 -0.000000 0.000001 0.000002 0.000002 0.000000 0.000000 0.000002 0.000000 0.000000 0.000002 0.000000 -0.000000 0.000002 0.000000 -0.000000 0.000002 0.000000 0.000000 0.000002 0.000000 0.000000 0.000002 0.000000 -0.000000 0.000002 0.000000 -0.000000 0.000002 0.000000 0.000000 0.000002 0.000000 0.000000 0.000000 0.000001 -0.000000 0.000000 0.000001 -0.000000 0.000000 0.000001 -0.000000 
0.702024 56.767952 7.217696 -0.102131 -6.164713 -15.772010 -0.000000 0.000000 0.000000 -63.970152 9.945526 3.329789 100.436839 10.087037 0.573005 -0.061547 0.677542 17.115426 -0.000001 -0.000000 -0.000000 -0.000001 -0.000001 0.000000 -20.758482 2.517727 -4.947078 64.710203 7.980198 0.804877 -43.693116 0.733281 11.355749 0.000000 -0.000000 -0.000000 -0.000003 -0.000000 0.000000 5.541817 2.985553 0.152202 4.641764 1.992369 1.349663 4.668626 1.846766 1.438062 0.764414 1.195515 1.133491 -15.802201 22.159427 4.754595 -0.000000 0.000000 -0.000000 -0.000000 0.000000 -0.000000 -0.000000 0.000000 0.000000 -0.000000 0.000000 -0.000000 -0.000000 0.000000 -0.000000 -0.000000 0.000000 -0.000000 -0.000000 0.000000 -0.000000 -0.000000 0.000000 -0.000000 -0.000000 0.000000 -0.000000 0.417703 0.977522 -5.230731 51.088104 -19.833360 -55.708577 -0.000035 -63.791556 -0.000026 -19.494463 -33.921387 26.202662 5.358057 -0.141372 9.666155 3.545767 27.155818 3.560568 -0.000001 0.000005 0.000001 -1.578838 0.825937 -19.703509 0.405081 2.870991 -21.069211 0.000002 0.000003 -0.000001 0.409507 7.162237 -25.647941 0.416490 2.993228 -22.185358 -0.000000 0.000000 -0.000003 2.386874 10.570821 -32.882368 0.471662 2.115283 -18.421978 -0.000001 0.000001 0.000000 2.967944 13.388247 -36.938899 0.139969 1.667045 -18.441895 -0.000002 -0.000000 -0.000001 -0.000002 -0.000002 -0.000003 0.552483 2.485358 8.941590 -15.548130 21.166666 54.791515 -0.000309 101.079136 0.000320 -18.201843 23.757836 -3.922309 0.789345 -8.211540 -4.825394 0.020121 -13.361265 -9.371040 0.000000 -0.000001 0.000000 -1.070481 -2.247354 17.231256 0.405436 -2.871949 21.079316 0.000001 0.000001 0.000002 0.439001 -7.256200 26.595157 0.417438 -2.995662 22.211551 0.000002 -0.000001 0.000003 2.698239 -11.184212 32.166107 0.472427 -2.116936 18.440360 0.000000 0.000001 -0.000001 4.305391 -16.260312 34.920985 0.139789 -1.666345 18.434725 0.000001 0.000001 -0.000001 0.000004 -0.000001 0.000000 -0.000002 -0.000000 -0.000000 -0.000002 -0.000000 -0.000001 -0.000002 -0.000000 -0.000000 -0.000002 -0.000000 -0.000000 -0.000002 -0.000000 -0.000000 -0.000002 -0.000000 -0.000000 -0.000002 -0.000000 -0.000000 -0.000002 -0.000000 -0.000000 -0.000002 -0.000000 -0.000000 -0.000002 -0.000000 -0.000000 -0.000000 0.000000 0.000000 -0.000000 0.000000 0.000000 -0.000000 0.000000 0.000000 
1.301674 56.973763 13.198403 0.109329 -4.002467 -15.126163 0.000000 0.000000 0.000000 -67.428386 8.952759 0.768063 92.441221 10.074531 0.669072 -2.820452 1.960184 16.337208 0.000000 -0.000000 0.000000 0.000002 0.000001 -0.000000 -12.771252 1.101793 -7.691317 61.731031 6.354252 0.971002 -43.431711 1.950151 14.802147 0.000000 -0.000000 -0.000000 0.000000 -0.000000 0.000001 5.230820 4.974614 -0.147262 4.448705 3.149789 1.037701 4.488400 3.024020 1.166606 1.152614 0.559719 1.495089 -15.349723 17.467128 4.353245 0.000000 0.000001 -0.000000 0.000000 0.000001 -0.000000 0.000000 0.000001 -0.000001 0.000000 0.000001 -0.000000 0.000000 -0.000000 -0.000000 0.000000 0.000001 -0.000000 0.000000 -0.000000 -0.000000 0.000000 0.000001 -0.000000 0.000000 0.000001 -0.000000 0.360095 0.455521 -3.526975 59.840421 -20.330453 -53.492921 -0.000037 -68.582162 -0.000018 -20.234664 -34.438026 25.571381 5.358055 -0.141370 9.666157 3.545769 27.155821 3.560566 -0.000000 0.000002 -0.000000 -1.578839 0.825944 -19.703508 0.405082 2.870988 -21.069209 -0.000000 0.000000 -0.000002 0.409508 7.162244 -25.647943 0.416492 2.993232 -22.185358 0.000001 0.000001 -0.000003 2.386875 10.570822 -32.882368 0.471662 2.115276 -18.421980 -0.000002 -0.000001 -0.000004 2.967944 13.388247 -36.938903 0.139966 1.667049 -18.441897 0.000000 -0.000001 0.000003 -0.000002 0.000001 0.000002 0.572465 3.368494 7.197855 -23.014563 20.036259 54.517224 0.000050 105.501738 -0.000066 -15.360233 23.077288 -5.389254 0.789346 -8.211537 -4.825395 0.020118 -13.361262 -9.371041 -0.000001 -0.000004 0.000002 -1.070484 -2.247353 17.231256 0.405436 -2.871952 21.079323 0.000000 0.000001 0.000004 0.438999 -7.256198 26.595148 0.417436 -2.995665 22.211557 0.000004 0.000002 -0.000002 2.698237 -11.184213 32.166107 0.472424 -2.116938 18.440363 0.000003 0.000001 -0.000000 4.305389 -16.260319 34.920978 0.139785 -1.666347 18.434725 0.000003 0.000000 -0.000001 -0.000001 -0.000001 -0.000003 -0.000002 -0.000000 0.000001 -0.000000 0.000000 0.000001 -0.000002 -0.000000 0.000000 -0.000002 -0.000000 0.000000 -0.000002 -0.000000 0.000001 -0.000000 0.000000 0.000001 -0.000002 -0.000000 0.000000 -0.000002 -0.000000 0.000000 -0.000002 -0.000000 0.000001 -0.000000 0.000000 0.000001 0.000000 0.000000 0.000000 0.000000 0.000000 0.000000 0.000000 0.000000 0.000000 
1.957690 57.228432 19.258425 0.430427 -1.634248 -14.494430 -0.000000 -0.000000 -0.000001 -69.075083 7.914973 -2.213467 82.578223 10.275627 0.760321 -6.320803 3.187339 15.724682 0.000000 0.000001 -0.000000 -0.000000 0.000002 -0.000001 -5.725957 -0.080240 -10.062663 58.951404 5.299500 1.116259 -39.000011 2.762784 19.208126 -0.000000 0.000000 0.000000 -0.000000 -0.000000 -0.000000 4.825657 6.980626 -0.584631 4.164441 4.140924 0.752282 4.210766 4.034414 0.914156 1.524938 -0.077954 1.938767 -14.628450 12.752693 3.958218 -0.000000 0.000000 -0.000000 -0.000000 0.000000 -0.000000 -0.000000 0.000000 0.000000 -0.000000 0.000000 0.000000 -0.000000 0.000000 -0.000000 -0.000000 0.000000 0.000000 -0.000000 0.000000 -0.000000 -0.000000 0.000000 -0.000000 -0.000000 0.000000 -0.000000 0.346230 -0.354007 -1.729428 67.332510 -19.844182 -52.035147 0.000022 -73.056229 0.000009 -21.063506 -34.966576 24.978893 5.358057 -0.141372 9.666156 3.545769 27.155818 3.560567 0.000000 0.000001 0.000002 -1.578840 0.825940 -19.703508 0.405081 2.870989 -21.069209 -0.000002 0.000003 0.000002 0.409507 7.162241 -25.647937 0.416491 2.993232 -22.185356 0.000003 -0.000000 0.000004 2.386873 10.570817 -32.882368 0.471658 2.115285 -18.421980 -0.000002 -0.000001 -0.000005 2.967942 13.388246 -36.938903 0.139967 1.667049 -18.441895 -0.000001 0.000000 0.000003 0.000001 0.000000 0.000002 0.591749 3.455528 5.803168 -28.885850 20.146527 54.610108 0.000083 109.781323 -0.000073 -11.356443 22.070674 -7.051890 0.789345 -8.211537 -4.825391 0.020118 -13.361262 -9.371039 0.000000 0.000002 -0.000002 -1.070482 -2.247350 17.231256 0.405436 -2.871952 21.079328 -0.000000 -0.000001 0.000000 0.438999 -7.256197 26.595148 0.417430 -2.995664 22.211557 0.000000 -0.000000 -0.000003 2.698234 -11.184212 32.166107 0.472426 -2.116942 18.440363 0.000001 -0.000000 -0.000000 4.305389 -16.260314 34.920981 0.139788 -1.666345 18.434725 -0.000000 0.000001 -0.000001 0.000000 0.000002 0.000002 0.000000 0.000001 -0.000000 0.000000 -0.000000 -0.000001 0.000000 0.000001 -0.000000 0.000000 0.000001 -0.000000 0.000000 0.000001 -0.000000 0.000000 -0.000000 -0.000000 0.000000 0.000001 -0.000000 0.000000 0.000001 -0.000000 0.000000 0.000001 -0.000000 0.000000 -0.000000 -0.000000 -0.000000 -0.000000 -0.000001 -0.000000 -0.000000 -0.000001 -0.000000 -0.000000 -0.000001 
